<svg id="Warstwa_1" data-name="Warstwa 1" xmlns="http://www.w3.org/2000/svg" viewBox="0 0 49 49"><title>design</title><rect x="4.03" y="11.95" width="7.09" height="1.39" transform="translate(-6.73 9.06) rotate(-45)"/><rect x="9.37" y="18.02" width="3.54" height="1.39" transform="translate(-9.97 13.36) rotate(-45)"/><rect x="32.77" y="40.61" width="7.09" height="1.39" transform="translate(-18.57 37.77) rotate(-45)"/><rect x="28.36" y="36.97" width="3.54" height="1.39" transform="translate(-17.81 32.34) rotate(-45)"/><path d="M12,47.74H4.45a3.12,3.12,0,0,1-3.2-3.19V37a.7.7,0,0,1,.2-.49L37.78.2a.7.7,0,0,1,1,0l10,10a.7.7,0,0,1,0,1L12.46,47.54A.7.7,0,0,1,12,47.74ZM2.64,37.31v7.23a1.75,1.75,0,0,0,1.81,1.81h7.23L47.31,10.72l-9-9Z"/><path d="M38.28,49a.69.69,0,0,1-.49-.2L24,35a.7.7,0,0,1,0-1L34,24a.69.69,0,0,1,.18-.14A.69.69,0,0,1,35,24L48.8,37.8a.7.7,0,0,1,0,1c-2.57,2.59-8.33,8.32-10,10A.69.69,0,0,1,38.28,49ZM25.48,34.53l12.79,12.8,9-9L34.52,25.48Z"/><path d="M14.48,25.2A.69.69,0,0,1,14,25L.2,11.21a.7.7,0,0,1,0-1l10-10a.7.7,0,0,1,1,0L25,14a.7.7,0,0,1,0,1L15,25A.69.69,0,0,1,14.48,25.2ZM1.68,10.72l12.8,12.8,9-9L10.72,1.68Z"/><path d="M13.92,45.8H12.53V42.73H10.09a.7.7,0,0,1-.7-.7V39.6H7a.7.7,0,0,1-.7-.7V36.47H3.2V35.08H7a.7.7,0,0,1,.7.7v2.44h2.44a.7.7,0,0,1,.7.7v2.44h2.44a.7.7,0,0,1,.7.7Z"/><rect x="4.51" y="24.74" width="38.09" height="1.39" transform="translate(-11.09 24.11) rotate(-45)"/><rect x="4.07" y="40.24" width="1.39" height="7.97" transform="translate(-29.88 16.32) rotate(-45)"/><rect x="36.33" y="4.88" width="1.39" height="14.17" transform="translate(2.38 29.68) rotate(-45)"/></svg>