<svg id="Warstwa_1" data-name="Warstwa 1" xmlns="http://www.w3.org/2000/svg" viewBox="0 0 52 47.99"><title>reklama</title><rect width="52" height="1.44"/><path d="M46.81,32.48H5.2a3.22,3.22,0,0,1-3.32-3.31V.72H3.32V29.18A1.78,1.78,0,0,0,5.2,31H46.8a2.23,2.23,0,0,0,1.41-.53,1.78,1.78,0,0,0,.46-1.33V.72h1.44V29.18a3.17,3.17,0,0,1-.9,2.37A3.62,3.62,0,0,1,46.81,32.48Z" transform="translate(0 -0.01)"/><path d="M26,27.31h0a.72.72,0,0,1-.51-.21L17,18.55,8.31,27.1l-1-1L16.51,17a.72.72,0,0,1,.51-.21h0a.72.72,0,0,1,.51.21L26,25.57,43.69,8l1,1L26.51,27.1A.72.72,0,0,1,26,27.31Z" transform="translate(0 -0.01)"/><path d="M44.92,13.66H43.48V9.2H39V7.77h5.2a.72.72,0,0,1,.72.72Z" transform="translate(0 -0.01)"/><path d="M26,48H14.25V46.56h11V31.76h1.44V47.28A.72.72,0,0,1,26,48Z" transform="translate(0 -0.01)"/><rect x="26" y="46.56" width="11.65" height="1.44"/><rect x="7.8" y="7.76" width="23.4" height="1.44"/><rect x="7.8" y="12.93" width="18.2" height="1.44"/><rect x="2.6" y="2.59" width="46.8" height="1.44"/></svg>