<svg id="Warstwa_1" data-name="Warstwa 1" xmlns="http://www.w3.org/2000/svg" viewBox="0 0 48 48"><title>research</title><rect x="41.59" y="34.98" width="1.43" height="14.66" transform="translate(-17.53 42.31) rotate(-45)"/><path d="M18.76,16.9a3.2,3.2,0,0,1-3.29-3.29V.72H16.9V13.61a1.77,1.77,0,0,0,1.86,1.86H31.65V16.9Z"/><rect x="5.87" y="15.47" width="5.16" height="1.43"/><rect x="5.87" y="20.63" width="20.63" height="1.43"/><rect x="5.87" y="25.78" width="19.83" height="1.43"/><rect x="5.87" y="30.94" width="18.05" height="1.43"/><rect x="5.87" y="36.09" width="19.83" height="1.43"/><rect x="5.87" y="41.25" width="20.63" height="1.43"/><path d="M3.27,47.84A3.56,3.56,0,0,1,.9,46.91,3.17,3.17,0,0,1,0,44.55V3.29A3.22,3.22,0,0,1,3.29,0H16.19a.72.72,0,0,1,.51.21L32.16,15.68a.72.72,0,0,1,.21.51v7.73a.72.72,0,0,1-.72.72c-2.91,0-5,1.17-6.13,3.47a8.91,8.91,0,0,0-.89,3.55c0,.29.11,7,7,7a.72.72,0,0,1,.72.72v5.16a3.57,3.57,0,0,1-.93,2.4,3.17,3.17,0,0,1-2.36.9H3.27Zm0-46.41A1.81,1.81,0,0,0,1.43,3.31V44.55a1.78,1.78,0,0,0,.46,1.33,2.19,2.19,0,0,0,1.39.53H29.08a1.78,1.78,0,0,0,1.34-.47,2.22,2.22,0,0,0,.52-1.38V40.08c-7.64-.46-7.73-8.35-7.73-8.43a10.32,10.32,0,0,1,1-4.19,7.54,7.54,0,0,1,6.69-4.24V16.48l-15-15Z"/><path d="M31.65,40.11c-8.35,0-8.45-8.36-8.45-8.45h0a10.32,10.32,0,0,1,1-4.19c1-1.94,3-4.26,7.41-4.26,8.35,0,8.45,8.37,8.45,8.45S40,40.11,31.65,40.11Zm-7-8.45c0,.3.11,7,7,7s7-6.73,7-7-.11-7-7-7c-2.91,0-5,1.17-6.13,3.47A8.91,8.91,0,0,0,24.64,31.65Z"/></svg>