<?xml version="1.0" encoding="utf-8"?>
<!-- Generator: Adobe Illustrator 22.0.1, SVG Export Plug-In . SVG Version: 6.00 Build 0)  -->
<svg version="1.1" id="Warstwa_1" xmlns="http://www.w3.org/2000/svg" xmlns:xlink="http://www.w3.org/1999/xlink" x="0px" y="0px"
	 viewBox="0 0 49 49" style="enable-background:new 0 0 49 49;" xml:space="preserve">
<title>wdrozenie</title>
<path d="M17.1,39.7c-7.6,0-7.7-7.7-7.7-7.7s0.1-7.7,7.7-7.7s7.7,7.7,7.7,7.7S24.7,39.7,17.1,39.7z M10.8,31.9c0,0.3,0.1,6.3,6.3,6.3
	s6.3-6,6.3-6.3s-0.1-6.3-6.3-6.3S10.8,31.6,10.8,31.9z"/>
<path d="M19.4,49h-4.7c-0.3,0-0.6-0.2-0.7-0.6l-1-4.7l-1.4-0.6l-4,2.7c-0.3,0.2-0.7,0.1-0.9-0.1l-3.3-3.3c-0.2-0.2-0.3-0.6-0.1-0.9
	l2.7-4L5.3,36l-4.8-1C0.2,34.9,0,34.6,0,34.3v-4.7c0-0.3,0.2-0.6,0.6-0.7l4.7-1l0.6-1.5l-2.7-4c-0.2-0.3-0.1-0.7,0.1-0.9l3.3-3.3
	c0.2-0.2,0.6-0.3,0.9-0.1l4,2.7l1.4-0.6l1-4.7c0.1-0.3,0.4-0.6,0.7-0.6h4.7c0.3,0,0.6,0.2,0.7,0.6l1,4.7l1.5,0.6l4-2.7
	c0.3-0.2,0.7-0.1,0.9,0.1l3.3,3.3c0.2,0.2,0.3,0.6,0.1,0.9l-2.7,4l0.6,1.5l4.7,1c0.3,0.1,0.6,0.4,0.6,0.7v4.7c0,0.3-0.2,0.6-0.6,0.7
	l-4.7,1l-0.6,1.5l2.7,4c0.2,0.3,0.1,0.7-0.1,0.9l-3.3,3.3c-0.2,0.2-0.6,0.3-0.9,0.1l-4-2.7l-1.5,0.6l-1,4.7C20,48.7,19.7,49,19.4,49
	z M15.3,47.5h3.5l0.9-4.5c0-0.2,0.2-0.4,0.4-0.5l2.2-0.9c0.2-0.1,0.5-0.1,0.7,0.1l3.9,2.5l2.5-2.5l-2.5-3.9
	c-0.1-0.2-0.2-0.5-0.1-0.7l0.9-2.2c0.1-0.2,0.3-0.4,0.5-0.4l4.5-0.9v-3.5l-4.5-0.9c-0.2,0-0.4-0.2-0.5-0.4l-0.9-2.2
	c-0.1-0.2-0.1-0.5,0.1-0.7l2.5-3.9l-2.5-2.5L23,22.2c-0.2,0.1-0.5,0.2-0.7,0.1l-2.2-0.9c-0.2-0.1-0.4-0.3-0.4-0.5l-0.9-4.5h-3.5
	l-0.9,4.5c0,0.2-0.2,0.4-0.4,0.5l-2.2,0.9c-0.2,0.1-0.5,0.1-0.7-0.1l-3.9-2.5l-2.5,2.5L7.3,26c0.1,0.2,0.2,0.5,0.1,0.7l-0.9,2.2
	c-0.1,0.2-0.3,0.4-0.5,0.4l-4.5,0.9v3.5L6,34.6c0.2,0,0.4,0.2,0.5,0.4l0.9,2.2c0.1,0.2,0.1,0.5-0.1,0.7l-2.5,3.9l2.5,2.5l3.9-2.5
	c0.2-0.1,0.5-0.2,0.7-0.1l2.2,0.9c0.2,0.1,0.4,0.3,0.4,0.5L15.3,47.5z"/>
<path d="M32.9,11c0,0.9,0.2,1.7,0.6,2.5c0.8,1.6,2.4,2.6,4.2,2.6c0.1,0,0.2,0,0.3,0h0h0c1.9,0.1,3.7-0.9,4.5-2.6
	c0.4-0.8,0.6-1.6,0.6-2.5c0-0.9-0.2-1.7-0.6-2.5c-0.8-1.6-2.4-2.6-4.2-2.6c-0.1,0-0.2,0-0.3,0c-0.1,0-0.2,0-0.3,0
	c-1.8,0-3.4,1-4.2,2.6C33.1,9.3,32.9,10.1,32.9,11z M34.2,11c0-0.7,0.2-1.3,0.5-2c0.6-1.3,2-2,3.4-1.9C39.4,7,40.7,7.7,41.3,9
	c0.3,0.6,0.5,1.3,0.5,2c0,0.1,0,0.2,0,0.2c-0.1,2-1.7,3.6-3.7,3.6c0,0-0.1,0-0.1,0c-0.1,0-0.2,0-0.3,0c-1.3,0-2.4-0.7-3-1.8
	C34.4,12.4,34.2,11.7,34.2,11L34.2,11z"/>
<path d="M47.7,16.6l1.1-2.8c0.1-0.3,0-0.6-0.2-0.8l-2.5-1.7v-0.8l0,0l2.5-1.7c0.2-0.2,0.3-0.5,0.2-0.8l-1.2-2.8
	C47.6,5.1,47.3,4.9,47,5l-3,0.6l-0.6-0.6l0,0L44,2c0.1-0.3-0.1-0.6-0.4-0.7l-2.8-1.1c-0.3-0.1-0.6,0-0.8,0.2l-1.6,2.5h-0.8l0,0
	l-1.7-2.5c-0.2-0.3-0.5-0.4-0.8-0.2l-2.8,1.1C32.1,1.4,31.9,1.7,32,2l0.5,3l-0.6,0.6L29,5c-0.3,0-0.6,0.1-0.7,0.4l-1.2,2.8
	c-0.1,0.3,0,0.6,0.2,0.8l2.5,1.7v0.8l0,0l-2.5,1.7c-0.2,0.2-0.3,0.5-0.2,0.8l1.1,2.8c0.1,0.3,0.4,0.4,0.7,0.4l3-0.5l0.6,0.6l0,0
	L32,20c0,0.3,0.1,0.6,0.4,0.7l2.8,1.2c0.3,0.1,0.6,0,0.8-0.2l1.7-2.5h0.8l0,0l1.7,2.5c0.1,0.2,0.3,0.3,0.5,0.3h0c0.1,0,0.2,0,0.2,0
	l2.8-1.1c0.3-0.1,0.4-0.4,0.4-0.7l-0.6-3l0.6-0.6l3,0.6C47.3,17.1,47.6,16.9,47.7,16.6z M47.5,13.9l-0.7,1.7L44,15.1
	c-0.2,0-0.5,0.1-0.6,0.3l-1.1,1.1c-0.2,0.1-0.2,0.4-0.2,0.6l0.5,2.7l-1.8,0.7l-1.6-2.3c-0.1-0.2-0.3-0.3-0.5-0.3h-1.6
	c-0.2,0-0.3,0.2-0.4,0.3l-1.6,2.3l-1.8-0.7l0-0.1l0.5-2.7c0.1-0.3,0-0.5-0.3-0.7l-1.1-1.1c-0.2-0.1-0.4-0.2-0.6-0.2l-2.7,0.6l0-0.1
	l-0.7-1.7l0.1,0l2.3-1.5c0.2-0.1,0.3-0.3,0.3-0.5v-1.5c0-0.2-0.1-0.4-0.3-0.5l-2.3-1.6l0-0.1l0.7-1.7l2.8,0.5c0.2,0,0.4,0,0.6-0.2
	l1.1-1.1C33.9,5.4,34,5.2,33.9,5l-0.6-2.8l1.8-0.7l1.6,2.3C36.8,4,37,4.1,37.3,4.1h1.5c0.2,0,0.4-0.1,0.5-0.3l1.6-2.3l1.8,0.7l0,0.1
	L42.1,5c0,0.2,0,0.4,0.2,0.6l1.1,1.1c0.2,0.1,0.4,0.2,0.6,0.2l2.8-0.6l0,0.1l0.7,1.7l-0.1,0l-2.3,1.5c-0.2,0.1-0.3,0.3-0.3,0.5v1.5
	c0,0.2,0.1,0.4,0.3,0.5L47.5,13.9L47.5,13.9z"/>
</svg>
